PathFileType	4	(X/Y/Z)	C:/Users/opensim2020/Desktop/walking_exp_matlab/subject06_walking22_straight_03.trc	
DataRate	CameraRate	NumFrames	NumMarkers	Units	OrigDataRate	OrigDataStartFrame	OrigNumFrames	
100.00	100.00	7	44	mm	100.00	1703	77	
Frame#	Time	LFHD			RFHD			LBHD			RBHD			C7			T10			CLAV			STRN			RBAK			LSHO			LUPA			LELB			LFRM			LWRA			LWRB			LFIN			RSHO			RUPA			RELB			RFRM			RWRA			RWRB			RFIN			LASI			RASI			LPSI			RPSI			LTHI			LKNE			LTIB			LANK			LHEE			LTOE			RTHI			RKNE			RTIB			RANK			RHEE			RTOE			*39			*40			*41			*42			*43			
		X1	Y1	Z1	X2	Y2	Z2	X3	Y3	Z3	X4	Y4	Z4	X5	Y5	Z5	X6	Y6	Z6	X7	Y7	Z7	X8	Y8	Z8	X9	Y9	Z9	X10	Y10	Z10	X11	Y11	Z11	X12	Y12	Z12	X13	Y13	Z13	X14	Y14	Z14	X15	Y15	Z15	X16	Y16	Z16	X17	Y17	Z17	X18	Y18	Z18	X19	Y19	Z19	X20	Y20	Z20	X21	Y21	Z21	X22	Y22	Z22	X23	Y23	Z23	X24	Y24	Z24	X25	Y25	Z25	X26	Y26	Z26	X27	Y27	Z27	X28	Y28	Z28	X29	Y29	Z29	X30	Y30	Z30	X31	Y31	Z31	X32	Y32	Z32	X33	Y33	Z33	X34	Y34	Z34	X35	Y35	Z35	X36	Y36	Z36	X37	Y37	Z37	X38	Y38	Z38	X39	Y39	Z39	X40	Y40	Z40	X41	Y41	Z41	X42	Y42	Z42	X43	Y43	Z43	X44	Y44	Z44	

20	0.190	1358.37756	-281.75842	1628.21655	1490.17639	-269.18707	1627.26404	1375.11731	-416.39340	1581.05505	1504.03540	-402.75998	1584.57581	1434.97266	-418.67957	1429.99304	1445.57178	-471.39304	1102.52930	1432.57703	-312.46820	1345.99585	1434.83264	-281.57153	1171.20911	1524.58081	-500.33789	1269.11072	1272.95459	-375.47546	1377.99487	1199.29968	-442.62836	1192.76501	1185.96741	-487.17053	1090.38696	1152.95007	-520.70178	946.09174	1177.16650	-501.22794	813.27557	1150.58936	-565.08130	835.12744	1140.83630	-560.82397	744.41138	1592.74280	-350.43448	1388.00134	1699.90930	-389.63660	1202.82422	1724.50903	-373.55966	1085.71033	1741.63879	-316.81522	983.22711	1699.86731	-209.10400	886.40662	1744.38770	-253.01027	862.12799	1741.58533	-184.29149	814.89490	1356.31030	-273.57407	945.67255	1569.87524	-313.07458	941.68213	1356.31653	-433.94290	969.95117	1521.21863	-458.80792	968.57806	1281.15991	-255.05719	646.44031	1314.39319	-194.39900	497.56146	1319.61072	-185.78935	239.42062	1363.23181	-169.33434	68.61377	1408.89551	-210.09827	54.62281	1371.32422	-26.92238	45.19576	1632.04724	-419.72318	611.66296	1626.13953	-436.15814	484.29987	1616.20911	-645.42316	323.73679	1572.06067	-792.56836	214.34874	1524.67297	-822.40259	236.59036	1570.38586	-769.40399	54.66850	1423.55188	-373.96951	1675.81458												 
21	0.200	1357.09192	-266.56314	1630.11670	1489.01294	-254.36057	1629.61475	1373.53394	-401.16592	1582.69617	1502.54700	-387.89371	1586.62756	1433.90771	-403.61938	1431.39075	1444.84790	-454.96188	1104.36829	1431.78772	-296.63910	1348.11304	1434.24768	-265.04477	1173.43262	1523.49292	-484.44528	1270.50208	1272.16101	-359.20554	1380.23547	1198.24927	-424.72189	1194.59851	1185.07056	-468.47781	1091.89038	1152.63354	-500.00760	946.86774	1177.93738	-478.82962	814.48346	1150.62732	-542.79834	835.22565	1142.04993	-537.05432	744.26740	1591.54529	-335.52374	1390.33081	1698.80212	-375.59348	1205.58020	1722.99060	-360.83539	1087.92737	1740.54065	-306.33142	984.02679	1700.04114	-200.55710	884.23773	1744.21179	-245.21953	861.21051	1741.68030	-177.79301	812.01147	1354.55591	-257.61359	948.13916	1568.83191	-296.36774	943.06610	1356.39368	-418.20792	971.93854	1521.31079	-442.09882	969.76910	1280.23486	-242.64510	646.84308	1313.58484	-183.18642	497.01697	1319.76331	-177.84222	238.75679	1363.71924	-168.26399	68.67625	1409.34363	-209.17801	55.15611	1371.07068	-25.80701	43.67945	1631.68347	-397.07449	611.19720	1626.26416	-409.83435	483.52615	1616.65735	-618.89142	327.06342	1571.70679	-769.42395	223.28212	1522.81018	-794.53009	248.39003	1571.25159	-763.78894	60.93632	1421.89478	-359.03122	1677.70813												 
22	0.210	1355.91528	-251.41867	1632.20862	1487.83484	-239.62581	1632.15759	1372.23401	-385.87656	1584.24451	1501.27710	-373.03058	1588.63464	1432.83765	-388.57385	1433.15063	1443.98291	-438.50247	1106.14038	1431.35986	-280.81561	1350.22717	1433.82813	-248.83765	1175.48096	1522.21533	-468.93777	1272.10229	1271.29614	-342.47214	1382.29858	1197.15649	-406.68240	1196.12292	1184.11194	-449.59225	1093.01550	1152.19031	-478.64203	947.23291	1178.81311	-455.90094	815.38727	1150.69861	-519.74310	834.87292	1143.18298	-512.50806	743.79736	1590.65076	-320.75439	1392.37915	1697.75110	-361.71283	1207.84766	1721.74243	-348.59384	1089.77051	1739.76343	-295.95605	984.48657	1700.36194	-192.46751	881.77454	1744.08557	-237.97798	859.96857	1741.80066	-171.87030	808.80603	1353.04871	-242.01576	950.10620	1567.90466	-280.33301	944.13861	1356.04382	-402.71768	973.86407	1521.11584	-425.50531	970.89929	1280.11829	-231.17273	646.33185	1313.23303	-172.88208	496.56470	1319.86792	-171.70030	237.86992	1364.26721	-167.05827	68.56797	1409.53223	-208.40631	55.42772	1371.50110	-24.81199	43.00387	1631.10095	-374.26108	610.92633	1626.05115	-383.00327	483.22760	1616.82800	-590.46027	328.46844	1571.06995	-744.60339	230.95532	1521.00745	-766.32019	257.14218	1573.30676	-751.04883	68.10461	1420.26160	-344.40811	1679.61121												 
23	0.220	1354.83789	-236.33069	1634.37927	1486.79504	-224.85359	1634.85754	1371.07178	-370.68106	1585.87378	1500.08984	-358.04620	1590.73889	1431.55957	-372.60046	1435.15320	1443.08618	-422.66321	1108.10083	1430.88220	-265.18048	1352.30579	1433.45789	-233.01930	1177.34619	1520.79993	-453.68277	1273.93726	1270.41089	-325.66513	1384.26709	1196.02124	-388.18875	1197.29578	1182.93738	-430.31415	1093.76038	1151.72986	-456.83603	947.31232	1179.66748	-432.10580	816.08777	1150.70190	-495.89896	834.20105	1144.24084	-487.23108	743.16022	1590.18018	-306.11581	1394.24597	1696.76343	-348.09204	1209.66174	1720.71094	-336.39844	1091.22375	1739.03833	-286.08905	984.55072	1700.51953	-184.84412	878.97906	1744.08398	-231.16281	858.46936	1741.74097	-166.44931	805.27844	1351.71484	-226.79028	951.76917	1567.87354	-263.80283	945.57343	1355.53198	-387.37656	975.78351	1520.95215	-409.41232	971.93219	1279.49182	-219.53302	646.10468	1313.05469	-163.12006	496.12482	1320.56348	-167.13292	237.53915	1364.82324	-166.17621	68.62463	1409.92297	-207.99953	55.71497	1372.60352	-24.20504	42.47322	1630.36230	-351.36237	610.95978	1625.78125	-355.87866	483.33130	1617.41577	-561.76672	328.81421	1569.90942	-719.83612	237.98599	1519.46301	-742.49310	263.84528	1575.61621	-726.05609	75.88781	1418.85864	-329.76547	1681.62476												 
24	0.230	1353.97314	-221.15834	1636.67969	1485.95850	-209.97368	1637.58191	1370.09949	-355.39056	1587.76855	1498.98730	-343.03717	1593.02344	1430.75183	-357.39648	1437.65369	1442.15723	-406.80411	1110.10742	1430.61377	-249.70345	1354.48035	1433.08545	-217.49533	1179.19690	1519.06653	-438.57996	1275.96594	1269.52747	-308.62979	1386.14636	1194.82458	-369.35413	1198.21045	1181.72925	-410.44577	1094.18774	1151.23694	-434.47787	947.05536	1180.68860	-407.85995	816.54669	1150.69421	-471.45639	833.28851	1145.23621	-460.92441	742.40735	1589.92188	-291.56781	1396.01575	1695.93872	-334.79483	1210.98901	1719.78589	-324.29700	1092.32959	1738.55859	-276.64392	984.29913	1700.71826	-177.78401	875.93372	1743.93030	-224.96254	856.78125	1741.82068	-161.63863	801.69989	1350.40674	-211.73315	953.40161	1567.48962	-247.81828	947.10638	1354.86755	-372.26483	977.83008	1520.60596	-393.76273	973.13940	1279.79028	-207.71967	646.28455	1312.97949	-154.26888	495.88718	1320.69763	-163.97755	238.00391	1365.19946	-165.90160	68.74448	1410.13574	-207.96222	55.88126	1372.90051	-23.93671	42.25054	1629.48499	-328.27252	611.38092	1625.11133	-328.82126	483.95523	1617.69592	-534.57587	329.75296	1568.59827	-694.58240	244.09848	1519.06421	-720.38068	268.07938	1577.15906	-692.03027	81.88094	1417.61780	-314.91003	1683.77649												 
25	0.240	1353.30676	-205.84685	1639.05493	1485.34485	-194.85957	1640.30603	1369.16211	-340.04697	1589.82959	1498.19800	-328.05893	1595.42688	1429.74622	-342.11725	1440.23975	1441.23987	-391.33701	1112.15637	1430.43237	-234.34386	1356.65027	1432.73523	-202.33130	1181.13879	1517.17590	-423.72565	1278.02710	1268.68274	-291.66022	1388.10156	1193.55969	-350.10504	1198.96191	1180.64111	-389.56088	1094.31384	1150.70520	-411.50778	946.65320	1181.86108	-383.00299	816.95099	1150.68018	-446.22171	832.22015	1146.02185	-433.97275	741.67523	1589.84912	-277.03360	1397.77112	1695.09534	-321.73425	1212.13000	1718.83618	-312.24829	1093.27856	1737.96790	-267.51605	983.99188	1700.93750	-171.28668	872.89703	1743.87756	-219.26543	855.13141	1741.96338	-157.67691	798.12488	1349.35962	-197.04045	955.01703	1566.92285	-232.10342	948.80914	1354.13977	-357.39932	980.00159	1520.34302	-378.59738	974.64301	1279.42322	-196.11221	647.38916	1312.85010	-146.26500	495.79224	1320.69824	-161.59277	238.55054	1365.40527	-165.51064	68.93222	1410.15381	-208.10350	56.04107	1372.77856	-24.01245	42.10489	1628.37061	-304.98843	612.40149	1623.94287	-301.61700	485.16907	1616.45190	-507.99402	332.80215	1568.19165	-667.19617	247.78328	1519.84473	-696.60968	269.80984	1577.51331	-655.16541	86.00903	1416.61609	-299.88559	1686.07007												 
26	0.250	1352.81091	-190.50308	1641.55481	1484.55786	-180.35765	1642.83105	1368.34631	-324.61798	1592.19604	1497.39319	-313.00061	1597.95715	1429.02515	-326.27332	1442.63635	1440.25562	-375.88617	1114.29700	1430.41833	-219.09665	1358.94897	1432.26489	-187.38168	1183.22925	1515.20911	-408.90506	1280.10376	1268.05005	-274.96042	1390.16541	1192.46423	-330.43329	1199.58960	1179.23877	-368.72757	1094.50269	1150.21936	-387.63116	946.20477	1183.18970	-357.68079	817.29407	1150.62280	-420.33133	831.31439	1147.02441	-406.14648	740.86353	1589.86206	-262.45404	1399.54700	1694.13953	-308.90527	1213.38757	1717.81799	-300.41638	1094.25061	1737.16125	-258.69617	983.70056	1701.13428	-165.49429	869.84058	1743.64502	-214.22115	853.57983	1742.26001	-154.45599	794.70624	1348.22473	-182.43738	956.88464	1566.20508	-216.52046	951.02722	1353.56006	-342.69971	982.20209	1520.06567	-363.40985	976.43341	1279.36890	-185.39021	648.89050	1312.55933	-139.01659	495.74133	1320.71240	-159.61101	239.06464	1365.46362	-165.52779	69.12926	1410.14832	-208.22284	56.13977	1372.74597	-24.07306	42.05297	1627.01697	-281.54871	614.05548	1622.30432	-274.22260	487.11032	1614.68152	-479.50809	335.74014	1569.02942	-637.52887	247.89830	1520.99890	-669.84369	269.26166	1577.46924	-617.76007	88.20849	1415.85266	-284.74252	1688.52490												 
